<?xml version="1.0" standalone="no"?><!DOCTYPE svg PUBLIC "-//W3C//DTD SVG 1.1//EN" "http://www.w3.org/Graphics/SVG/1.1/DTD/svg11.dtd"><svg t="1510563018661" class="icon" style="" viewBox="0 0 1024 1024" version="1.1" xmlns="http://www.w3.org/2000/svg" p-id="3193" xmlns:xlink="http://www.w3.org/1999/xlink" width="200" height="200"><defs><style type="text/css"></style></defs><path d="M157.515279 0h708.969342A157.414887 157.414887 0 0 1 1023.9999 156.410965v711.17797A157.414887 157.414887 0 0 1 866.484621 1023.9999H157.515279A157.414887 157.414887 0 0 1 0 867.588935V156.410965A157.414887 157.414887 0 0 1 157.515279 0z" fill="#C9001C" p-id="3194"></path><path d="M354.986632 592.313667a13.753724 13.753724 0 0 0 12.549018-13.352155V390.123883c0-70.274503 90.352932-103.905872 137.738026-22.086272C553.963867 451.764662 582.274453 499.952892 582.274453 499.952892V390.123883c0-70.274503 90.352932-103.905872 137.738025-22.086272C768.401493 451.764662 796.410902 499.952892 796.410902 499.952892V321.25487H903.529323v312.821931c0 80.313718-94.268226 92.862736-132.618026 28.712154l-81.418031-134.826654v106.1145c0.803137 80.313718-93.565481 92.862736-132.618026 28.712154-22.789017-37.546663-81.016463-134.826653-81.016463-134.826654v95.774108c0 49.392936-28.712154 75.193718-73.687836 75.193719H298.265069C32.225879 698.930128 30.117644 321.25487 294.550559 321.25487h58.930191v107.218813h-64.853327c-108.323127 0-120.470576 163.6392 7.429019 163.6392z" fill="#FFFFFF" p-id="3195"></path></svg>